<?xml version="1.0" encoding="iso-8859-1"?>
<!-- Generator: Adobe Illustrator 19.0.0, SVG Export Plug-In . SVG Version: 6.00 Build 0)  -->
<svg version="1.1" id="Layer_1" xmlns="http://www.w3.org/2000/svg" xmlns:xlink="http://www.w3.org/1999/xlink" x="0px" y="0px"
	 viewBox="0 0 512.004 512.004" style="enable-background:new 0 0 512.004 512.004;" xml:space="preserve">
<g>
	<path style="fill:#ECF0F1;" d="M256.003,291.314c-4.873,0-8.828-3.946-8.828-8.828v-35.31c0-4.882,3.955-8.828,8.828-8.828
		c4.873,0,8.828,3.946,8.828,8.828v35.31C264.831,287.368,260.876,291.314,256.003,291.314"/>
	<path style="fill:#F0C419;" d="M370.762,397.245c0,63.382-51.377,114.759-114.759,114.759s-114.759-51.377-114.759-114.759
		s51.377-114.759,114.759-114.759S370.762,333.863,370.762,397.245"/>
	<g>
		<path style="fill:#FFE69F;" d="M256.003,450.21c-4.873,0-8.828-3.946-8.828-8.828V379.59l-10.593,14.124
			c-2.922,3.911-8.448,4.696-12.359,1.766c-3.902-2.922-4.687-8.457-1.766-12.359l26.483-35.31c2.278-3.037,6.259-4.281,9.852-3.072
			c3.611,1.192,6.038,4.564,6.038,8.369v88.276C264.831,446.264,260.876,450.21,256.003,450.21"/>
		<path style="fill:#FFE69F;" d="M264.831,317.797c0,4.882-3.955,8.828-8.828,8.828c-4.873,0-8.828-3.946-8.828-8.828
			c0-4.882,3.955-8.828,8.828-8.828C260.876,308.969,264.831,312.915,264.831,317.797"/>
		<path style="fill:#FFE69F;" d="M264.831,476.693c0,4.882-3.955,8.828-8.828,8.828c-4.873,0-8.828-3.946-8.828-8.828
			c0-4.882,3.955-8.828,8.828-8.828C260.876,467.866,264.831,471.812,264.831,476.693"/>
		<path style="fill:#FFE69F;" d="M335.451,406.073c-4.873,0-8.828-3.946-8.828-8.828c0-4.882,3.955-8.828,8.828-8.828
			s8.828,3.946,8.828,8.828C344.279,402.127,340.324,406.073,335.451,406.073"/>
		<path style="fill:#FFE69F;" d="M176.555,406.073c-4.873,0-8.828-3.946-8.828-8.828c0-4.882,3.955-8.828,8.828-8.828
			c4.873,0,8.828,3.946,8.828,8.828C185.382,402.127,181.428,406.073,176.555,406.073"/>
		<path style="fill:#FFE69F;" d="M318.426,347.305c-3.452,3.452-9.039,3.452-12.491,0c-3.443-3.452-3.443-9.031,0-12.482
			c3.452-3.452,9.039-3.452,12.491,0C321.868,338.275,321.868,343.854,318.426,347.305"/>
		<path style="fill:#FFE69F;" d="M206.068,459.667c-3.452,3.452-9.039,3.452-12.491,0c-3.443-3.452-3.443-9.031,0-12.482
			c3.452-3.452,9.039-3.452,12.491,0C209.52,450.637,209.52,456.216,206.068,459.667"/>
		<path style="fill:#FFE69F;" d="M305.938,459.667c-3.452-3.452-3.452-9.031,0-12.482c3.452-3.452,9.039-3.452,12.491,0
			c3.443,3.452,3.443,9.031,0,12.482C314.978,463.119,309.39,463.119,305.938,459.667"/>
		<path style="fill:#FFE69F;" d="M193.581,347.305c-3.443-3.452-3.443-9.031,0-12.482c3.452-3.452,9.039-3.452,12.491,0
			c3.443,3.452,3.443,9.031,0,12.482C202.62,350.757,197.032,350.757,193.581,347.305"/>
	</g>
	<g>
		<polygon style="fill:#932924;" points="300.141,247.176 211.865,247.176 203.038,211.866 308.969,211.866 		"/>
		<path style="fill:#932924;" d="M256.684,208.469c-0.459,1.112-0.671,2.269-0.671,3.399h18.379L361.255,3.404
			c0.459-1.112,0.671-2.269,0.671-3.399h-18.379L256.684,208.469z"/>
	</g>
	<g>
		<path style="fill:#BC392F;" d="M158.977,0.004c0,0.998,0.088,2.022,0.45,3.019l69.102,190.031l10.037-24.082L177.127,0.004
			H158.977z"/>
		<path style="fill:#BC392F;" d="M343.546,0.004h-34.578l-88.276,211.862h35.319c0-1.13,0.203-2.286,0.671-3.399L343.546,0.004z"/>
		<path style="fill:#BC392F;" d="M361.925,0.004c0,1.13-0.203,2.286-0.671,3.399l-86.863,208.463h34.578L397.244,0.004H361.925z"/>
	</g>
	<g>
		<polygon style="fill:#E64C3C;" points="257.869,122.642 211.869,0 177.123,0 238.563,168.969 		"/>
		<path style="fill:#E64C3C;" d="M228.52,193.02L159.427,3.024c-0.362-1.006-0.45-2.022-0.45-3.019h-44.217l88.276,211.862h17.655
			l7.83-18.776V193.02"/>
	</g>
</g>
<g>
</g>
<g>
</g>
<g>
</g>
<g>
</g>
<g>
</g>
<g>
</g>
<g>
</g>
<g>
</g>
<g>
</g>
<g>
</g>
<g>
</g>
<g>
</g>
<g>
</g>
<g>
</g>
<g>
</g>
</svg>
