<?xml version="1.0" encoding="iso-8859-1"?>
<!-- Generator: Adobe Illustrator 19.0.0, SVG Export Plug-In . SVG Version: 6.00 Build 0)  -->
<svg version="1.1" id="Layer_1" xmlns="http://www.w3.org/2000/svg" xmlns:xlink="http://www.w3.org/1999/xlink" x="0px" y="0px"
	 viewBox="0 0 512.004 512.004" style="enable-background:new 0 0 512.004 512.004;" xml:space="preserve">
<g>
	<path style="fill:#BDC3C7;" d="M256.003,291.314c-4.882,0-8.828-3.946-8.828-8.828v-35.31c0-4.882,3.946-8.828,8.828-8.828
		s8.828,3.946,8.828,8.828v35.31C264.831,287.368,260.885,291.314,256.003,291.314"/>
	<path style="fill:#ECF0F1;" d="M370.762,397.245c0,63.382-51.377,114.759-114.759,114.759s-114.759-51.377-114.759-114.759
		s51.377-114.759,114.759-114.759S370.762,333.863,370.762,397.245"/>
	<g>
		<path style="fill:#BDC3C7;" d="M264.831,317.797c0,4.882-3.946,8.828-8.828,8.828s-8.828-3.946-8.828-8.828
			c0-4.882,3.946-8.828,8.828-8.828S264.831,312.915,264.831,317.797"/>
		<path style="fill:#BDC3C7;" d="M264.831,476.693c0,4.882-3.946,8.828-8.828,8.828s-8.828-3.946-8.828-8.828
			c0-4.882,3.946-8.828,8.828-8.828S264.831,471.812,264.831,476.693"/>
		<path style="fill:#BDC3C7;" d="M335.451,406.073c-4.882,0-8.828-3.946-8.828-8.828c0-4.882,3.946-8.828,8.828-8.828
			s8.828,3.946,8.828,8.828C344.279,402.127,340.333,406.073,335.451,406.073"/>
		<path style="fill:#BDC3C7;" d="M176.555,406.073c-4.882,0-8.828-3.946-8.828-8.828c0-4.882,3.946-8.828,8.828-8.828
			s8.828,3.946,8.828,8.828C185.382,402.127,181.436,406.073,176.555,406.073"/>
		<path style="fill:#BDC3C7;" d="M318.426,347.305c-3.452,3.452-9.031,3.452-12.482,0c-3.452-3.452-3.452-9.031,0-12.482
			c3.452-3.452,9.031-3.452,12.482,0C321.877,338.275,321.877,343.854,318.426,347.305"/>
		<path style="fill:#BDC3C7;" d="M206.064,459.667c-3.452,3.452-9.031,3.452-12.482,0c-3.452-3.452-3.452-9.031,0-12.482
			c3.452-3.452,9.031-3.452,12.482,0C209.515,450.637,209.515,456.216,206.064,459.667"/>
		<path style="fill:#BDC3C7;" d="M305.943,459.667c-3.452-3.452-3.452-9.031,0-12.482c3.452-3.452,9.031-3.452,12.482,0
			c3.452,3.452,3.452,9.031,0,12.482C314.973,463.119,309.394,463.119,305.943,459.667"/>
		<path style="fill:#BDC3C7;" d="M193.581,347.305c-3.452-3.452-3.452-9.031,0-12.482c3.452-3.452,9.031-3.452,12.482,0
			c3.452,3.452,3.452,9.031,0,12.482C202.611,350.757,197.032,350.757,193.581,347.305"/>
		<path style="fill:#BDC3C7;" d="M282.486,450.21H229.52c-3.452,0-6.577-2.013-8.015-5.138c-1.439-3.134-0.936-6.815,1.315-9.428
			l42.929-50.088c4.458-5.208,4.034-11.546,2.136-15.748c-1.042-2.33-4.273-7.751-11.591-7.874
			c-10.028,0-17.946,7.918-17.946,17.655c0,4.882-3.946,8.828-8.828,8.828c-4.882,0-8.828-3.946-8.828-8.828
			c0-19.474,15.837-35.31,35.31-35.31c12.5,0.194,22.987,7.194,27.983,18.282c5.252,11.679,3.399,24.885-4.838,34.489
			l-30.438,35.505h33.774c4.882,0,8.828,3.946,8.828,8.828C291.313,446.264,287.367,450.21,282.486,450.21"/>
	</g>
	<g>
		<polygon style="fill:#932924;" points="300.141,247.176 211.865,247.176 203.038,211.866 308.969,211.866 		"/>
		<path style="fill:#932924;" d="M256.684,208.469c-0.468,1.112-0.671,2.269-0.671,3.399h18.379L361.255,3.404
			c0.459-1.112,0.671-2.269,0.671-3.399h-18.379L256.684,208.469z"/>
	</g>
	<g>
		<path style="fill:#BC392F;" d="M158.977,0.004c0,0.998,0.097,2.022,0.459,3.019l69.094,190.031l10.037-24.082L177.127,0.004
			H158.977z"/>
		<path style="fill:#BC392F;" d="M343.546,0.004h-34.578l-88.276,211.862h35.319c0-1.13,0.203-2.286,0.671-3.399L343.546,0.004z"/>
		<path style="fill:#BC392F;" d="M361.925,0.004c0,1.13-0.203,2.286-0.671,3.399l-86.863,208.463h34.578L397.244,0.004H361.925z"/>
	</g>
	<g>
		<polygon style="fill:#E64C3C;" points="257.865,122.642 211.864,0 177.128,0 238.559,168.969 		"/>
		<path style="fill:#E64C3C;" d="M228.52,193.02L159.435,3.024c-0.362-1.006-0.459-2.022-0.459-3.019h-44.217l88.276,211.862h17.655
			l7.821-18.776C228.52,193.073,228.52,193.047,228.52,193.02"/>
	</g>
</g>
<g>
</g>
<g>
</g>
<g>
</g>
<g>
</g>
<g>
</g>
<g>
</g>
<g>
</g>
<g>
</g>
<g>
</g>
<g>
</g>
<g>
</g>
<g>
</g>
<g>
</g>
<g>
</g>
<g>
</g>
</svg>
